<svg width="25" height="12" viewBox="0 0 25 12" fill="none" xmlns="http://www.w3.org/2000/svg">
<path d="M24.7136 5.31498C24.7133 5.31469 24.713 5.31435 24.7127 5.31406L19.61 0.281803C19.2277 -0.0951808 18.6094 -0.0937776 18.2288 0.285094C17.8484 0.663916 17.8498 1.27664 18.2321 1.65368L21.6581 5.03226H0.976562C0.437207 5.03226 0 5.46552 0 6C0 6.53448 0.437207 6.96774 0.976562 6.96774H21.658L18.2322 10.3463C17.8499 10.7234 17.8484 11.3361 18.2289 11.7149C18.6094 12.0938 19.2278 12.0951 19.61 11.7182L24.7127 6.68594C24.713 6.68565 24.7133 6.68531 24.7136 6.68502C25.0961 6.30673 25.0949 5.69202 24.7136 5.31498Z" fill="white"/>
</svg>
