<svg width="67" height="411" viewBox="0 0 67 411" fill="none" xmlns="http://www.w3.org/2000/svg">
<circle cx="33.5" cy="391.5" r="18.5" stroke="white" stroke-width="2"/>
<rect x="27" y="385" width="13" height="13" rx="2" fill="#EA4E3D"/>
<rect x="8" width="51" height="15" rx="2" fill="#EA4E3D"/>
<path d="M14.1377 7.10059V7.55713C14.1377 8.26611 14.238 8.80322 14.4385 9.16846C14.639 9.53369 14.9129 9.71631 15.2603 9.71631C15.604 9.71631 15.8761 9.53369 16.0767 9.16846C16.2808 8.79964 16.3828 8.26253 16.3828 7.55713V7.10059C16.3828 6.39518 16.2808 5.86165 16.0767 5.5C15.8761 5.13835 15.604 4.95752 15.2603 4.95752C14.9129 4.95752 14.639 5.13835 14.4385 5.5C14.238 5.85807 14.1377 6.3916 14.1377 7.10059ZM12.3599 7.5625V7.09521C12.3599 6.021 12.6177 5.15983 13.1333 4.51172C13.6489 3.86361 14.3633 3.53955 15.2764 3.53955C16.193 3.53955 16.902 3.86003 17.4033 4.50098C17.9046 5.14193 18.1553 6.00667 18.1553 7.09521V7.5625C18.1553 7.96354 18.1177 8.34131 18.0425 8.6958C17.9673 9.05029 17.8491 9.37793 17.688 9.67871C17.5304 9.97591 17.3371 10.2337 17.1079 10.4521C16.8823 10.667 16.6102 10.8353 16.2915 10.957C15.9728 11.0752 15.6219 11.1343 15.2388 11.1343C14.3257 11.1343 13.6167 10.8102 13.1118 10.1621C12.6105 9.51042 12.3599 8.64388 12.3599 7.5625ZM20.6582 7.10059V7.55713C20.6582 8.26611 20.7585 8.80322 20.959 9.16846C21.1595 9.53369 21.4334 9.71631 21.7808 9.71631C22.1245 9.71631 22.3966 9.53369 22.5972 9.16846C22.8013 8.79964 22.9033 8.26253 22.9033 7.55713V7.10059C22.9033 6.39518 22.8013 5.86165 22.5972 5.5C22.3966 5.13835 22.1245 4.95752 21.7808 4.95752C21.4334 4.95752 21.1595 5.13835 20.959 5.5C20.7585 5.85807 20.6582 6.3916 20.6582 7.10059ZM18.8804 7.5625V7.09521C18.8804 6.021 19.1382 5.15983 19.6538 4.51172C20.1694 3.86361 20.8838 3.53955 21.7969 3.53955C22.7135 3.53955 23.4225 3.86003 23.9238 4.50098C24.4251 5.14193 24.6758 6.00667 24.6758 7.09521V7.5625C24.6758 7.96354 24.6382 8.34131 24.563 8.6958C24.4878 9.05029 24.3696 9.37793 24.2085 9.67871C24.0509 9.97591 23.8576 10.2337 23.6284 10.4521C23.4028 10.667 23.1307 10.8353 22.812 10.957C22.4933 11.0752 22.1424 11.1343 21.7593 11.1343C20.8462 11.1343 20.1372 10.8102 19.6323 10.1621C19.131 9.51042 18.8804 8.64388 18.8804 7.5625ZM25.8682 9.94189C25.6784 9.75212 25.5835 9.52474 25.5835 9.25977C25.5835 8.99479 25.6784 8.76742 25.8682 8.57764C26.0579 8.38786 26.2853 8.29297 26.5503 8.29297C26.8153 8.29297 27.0426 8.38786 27.2324 8.57764C27.4222 8.76742 27.5171 8.99479 27.5171 9.25977C27.5171 9.52474 27.4222 9.75212 27.2324 9.94189C27.0426 10.1317 26.8153 10.2266 26.5503 10.2266C26.2853 10.2266 26.0579 10.1317 25.8682 9.94189ZM25.8682 6.30566C25.6784 6.11589 25.5835 5.88851 25.5835 5.62354C25.5835 5.35856 25.6784 5.13118 25.8682 4.94141C26.0579 4.75163 26.2853 4.65674 26.5503 4.65674C26.8153 4.65674 27.0426 4.75163 27.2324 4.94141C27.4222 5.13118 27.5171 5.35856 27.5171 5.62354C27.5171 5.88851 27.4222 6.11589 27.2324 6.30566C27.0426 6.49544 26.8153 6.59033 26.5503 6.59033C26.2853 6.59033 26.0579 6.49544 25.8682 6.30566ZM30.251 7.10059V7.55713C30.251 8.26611 30.3512 8.80322 30.5518 9.16846C30.7523 9.53369 31.0262 9.71631 31.3735 9.71631C31.7173 9.71631 31.9894 9.53369 32.1899 9.16846C32.394 8.79964 32.4961 8.26253 32.4961 7.55713V7.10059C32.4961 6.39518 32.394 5.86165 32.1899 5.5C31.9894 5.13835 31.7173 4.95752 31.3735 4.95752C31.0262 4.95752 30.7523 5.13835 30.5518 5.5C30.3512 5.85807 30.251 6.3916 30.251 7.10059ZM28.4731 7.5625V7.09521C28.4731 6.021 28.731 5.15983 29.2466 4.51172C29.7622 3.86361 30.4766 3.53955 31.3896 3.53955C32.3063 3.53955 33.0153 3.86003 33.5166 4.50098C34.0179 5.14193 34.2686 6.00667 34.2686 7.09521V7.5625C34.2686 7.96354 34.231 8.34131 34.1558 8.6958C34.0806 9.05029 33.9624 9.37793 33.8013 9.67871C33.6437 9.97591 33.4504 10.2337 33.2212 10.4521C32.9956 10.667 32.7235 10.8353 32.4048 10.957C32.0861 11.0752 31.7352 11.1343 31.3521 11.1343C30.439 11.1343 29.73 10.8102 29.2251 10.1621C28.7238 9.51042 28.4731 8.64388 28.4731 7.5625ZM36.7715 7.10059V7.55713C36.7715 8.26611 36.8717 8.80322 37.0723 9.16846C37.2728 9.53369 37.5467 9.71631 37.894 9.71631C38.2378 9.71631 38.5099 9.53369 38.7104 9.16846C38.9146 8.79964 39.0166 8.26253 39.0166 7.55713V7.10059C39.0166 6.39518 38.9146 5.86165 38.7104 5.5C38.5099 5.13835 38.2378 4.95752 37.894 4.95752C37.5467 4.95752 37.2728 5.13835 37.0723 5.5C36.8717 5.85807 36.7715 6.3916 36.7715 7.10059ZM34.9937 7.5625V7.09521C34.9937 6.021 35.2515 5.15983 35.7671 4.51172C36.2827 3.86361 36.9971 3.53955 37.9102 3.53955C38.8268 3.53955 39.5358 3.86003 40.0371 4.50098C40.5384 5.14193 40.7891 6.00667 40.7891 7.09521V7.5625C40.7891 7.96354 40.7515 8.34131 40.6763 8.6958C40.6011 9.05029 40.4829 9.37793 40.3218 9.67871C40.1642 9.97591 39.9709 10.2337 39.7417 10.4521C39.5161 10.667 39.244 10.8353 38.9253 10.957C38.6066 11.0752 38.2557 11.1343 37.8726 11.1343C36.9595 11.1343 36.2505 10.8102 35.7456 10.1621C35.2443 9.51042 34.9937 8.64388 34.9937 7.5625ZM41.9814 9.94189C41.7917 9.75212 41.6968 9.52474 41.6968 9.25977C41.6968 8.99479 41.7917 8.76742 41.9814 8.57764C42.1712 8.38786 42.3986 8.29297 42.6636 8.29297C42.9285 8.29297 43.1559 8.38786 43.3457 8.57764C43.5355 8.76742 43.6304 8.99479 43.6304 9.25977C43.6304 9.52474 43.5355 9.75212 43.3457 9.94189C43.1559 10.1317 42.9285 10.2266 42.6636 10.2266C42.3986 10.2266 42.1712 10.1317 41.9814 9.94189ZM41.9814 6.30566C41.7917 6.11589 41.6968 5.88851 41.6968 5.62354C41.6968 5.35856 41.7917 5.13118 41.9814 4.94141C42.1712 4.75163 42.3986 4.65674 42.6636 4.65674C42.9285 4.65674 43.1559 4.75163 43.3457 4.94141C43.5355 5.13118 43.6304 5.35856 43.6304 5.62354C43.6304 5.88851 43.5355 6.11589 43.3457 6.30566C43.1559 6.49544 42.9285 6.59033 42.6636 6.59033C42.3986 6.59033 42.1712 6.49544 41.9814 6.30566ZM46.3643 7.10059V7.55713C46.3643 8.26611 46.4645 8.80322 46.665 9.16846C46.8656 9.53369 47.1395 9.71631 47.4868 9.71631C47.8306 9.71631 48.1027 9.53369 48.3032 9.16846C48.5073 8.79964 48.6094 8.26253 48.6094 7.55713V7.10059C48.6094 6.39518 48.5073 5.86165 48.3032 5.5C48.1027 5.13835 47.8306 4.95752 47.4868 4.95752C47.1395 4.95752 46.8656 5.13835 46.665 5.5C46.4645 5.85807 46.3643 6.3916 46.3643 7.10059ZM44.5864 7.5625V7.09521C44.5864 6.021 44.8442 5.15983 45.3599 4.51172C45.8755 3.86361 46.5898 3.53955 47.5029 3.53955C48.4196 3.53955 49.1286 3.86003 49.6299 4.50098C50.1312 5.14193 50.3818 6.00667 50.3818 7.09521V7.5625C50.3818 7.96354 50.3442 8.34131 50.269 8.6958C50.1938 9.05029 50.0757 9.37793 49.9146 9.67871C49.757 9.97591 49.5636 10.2337 49.3345 10.4521C49.1089 10.667 48.8368 10.8353 48.5181 10.957C48.1994 11.0752 47.8485 11.1343 47.4653 11.1343C46.5522 11.1343 45.8433 10.8102 45.3384 10.1621C44.8371 9.51042 44.5864 8.64388 44.5864 7.5625ZM54.6304 11H52.874V5.28516H52.7988C52.7344 5.32096 52.4658 5.49642 51.9932 5.81152C51.5205 6.12305 51.2376 6.31283 51.1445 6.38086V4.81787C51.2484 4.7391 51.5438 4.54036 52.0308 4.22168C52.5177 3.89941 52.806 3.71501 52.8955 3.66846H54.6304V11Z" fill="white"/>
<rect y="341" width="67" height="23" rx="11.5" fill="black" fill-opacity="0.32"/>
<circle cx="12.5" cy="352.5" r="6.5" fill="black" fill-opacity="0.56"/>
<circle cx="54.5" cy="352.5" r="6.5" fill="black" fill-opacity="0.56"/>
<circle cx="33.5" cy="352.5" r="9.5" fill="black" fill-opacity="0.56"/>
<path d="M30.6919 354V350.073H30.6304L29.4204 350.907V349.946L30.6953 349.068H31.7241V354H30.6919ZM34.6396 352.77H34.5781L33.8774 354H32.8213L34.0039 352.137L32.8145 350.23H33.9561L34.6226 351.467H34.6841L35.3506 350.23H36.4375L35.2549 352.093L36.4478 354H35.3403L34.6396 352.77Z" fill="#E8C744"/>
<path d="M53.3149 352.032C53.3149 351.692 53.4338 351.416 53.6714 351.204C53.909 350.993 54.2183 350.887 54.5991 350.887C54.967 350.887 55.2664 350.983 55.4976 351.175C55.7303 351.365 55.8467 351.612 55.8467 351.915C55.8467 352.107 55.7865 352.298 55.666 352.488C55.5456 352.677 55.3332 352.915 55.0288 353.201L54.355 353.843V353.887H55.8979V354.5H53.3564V353.985L54.5063 352.859C54.7537 352.618 54.9189 352.438 55.002 352.317C55.085 352.197 55.1265 352.079 55.1265 351.963C55.1265 351.822 55.0744 351.706 54.9702 351.617C54.8677 351.526 54.7358 351.48 54.5747 351.48C54.4038 351.48 54.2646 351.531 54.1572 351.634C54.0514 351.735 53.9985 351.867 53.9985 352.029V352.044H53.3149V352.032Z" fill="white"/>
<path d="M10.9375 355.447H10.3687L10.5615 353.897H11.2646L10.9375 355.447ZM13.269 354.59C12.8898 354.59 12.5789 354.489 12.3364 354.285C12.0955 354.08 11.9694 353.818 11.958 353.499H12.6392C12.6603 353.646 12.7295 353.764 12.8467 353.853C12.9639 353.943 13.1063 353.987 13.2739 353.987C13.4644 353.987 13.6182 353.929 13.7354 353.812C13.8542 353.694 13.9136 353.541 13.9136 353.35C13.9136 353.156 13.8542 353 13.7354 352.881C13.6165 352.763 13.4635 352.703 13.2764 352.703C13.0046 352.703 12.8035 352.809 12.6733 353.021H12.0142L12.1899 350.977H14.4043V351.59H12.7612L12.6831 352.496H12.7271C12.8866 352.266 13.1356 352.151 13.4741 352.151C13.8078 352.151 14.0812 352.262 14.2944 352.483C14.5093 352.705 14.6167 352.988 14.6167 353.333C14.6167 353.707 14.493 354.011 14.2456 354.244C13.9982 354.475 13.6727 354.59 13.269 354.59Z" fill="white"/>
</svg>
