<svg width="137" height="20" viewBox="0 0 137 20" fill="none" xmlns="http://www.w3.org/2000/svg">
<path fill-rule="evenodd" clip-rule="evenodd" d="M38.1296 6.9267C38.1296 5.86021 37.539 5.32719 36.3578 5.32719H34.8615V8.49209H36.3578C37.539 8.49209 38.1296 7.97015 38.1296 6.9267ZM34.8615 10.8488V15.1143H31.9199V2.95319H36.6848C38.1296 2.95319 39.2302 3.31164 39.9875 4.02809C40.7442 4.74499 41.1226 5.7109 41.1226 6.9267C41.1226 7.68348 40.9534 8.3574 40.6153 8.94802C40.2772 9.53864 39.7748 10.003 39.1102 10.3415C38.4451 10.6796 37.6365 10.8488 36.6848 10.8488H34.8615Z" fill="white"/>
<path fill-rule="evenodd" clip-rule="evenodd" d="M47.2287 12.8611H51.1504V15.1146H44.2871V2.953H47.2287V12.8611Z" fill="white"/>
<path fill-rule="evenodd" clip-rule="evenodd" d="M61.0071 10.6595L59.4936 6.18668L57.9623 10.6595H61.0071ZM61.7639 12.8958H57.206L56.4488 15.1147H53.3525L57.8077 3.03906H61.1959L65.6515 15.1147H62.5207L61.7639 12.8958Z" fill="white"/>
<path fill-rule="evenodd" clip-rule="evenodd" d="M79.017 2.95306L74.8029 11.0724V15.1146H71.8444V11.0724L67.6299 2.95306H71.0013L73.3407 7.90711L75.6801 2.95306H79.017Z" fill="white"/>
<path fill-rule="evenodd" clip-rule="evenodd" d="M88.5471 11.3822C88.5471 10.9466 88.4036 10.605 88.1169 10.3582C87.8302 10.1119 87.423 9.98868 86.8953 9.98868H84.8142V12.7234H86.913C88.0026 12.7234 88.5471 12.2767 88.5471 11.3822ZM84.8142 7.92439H86.7407C87.7615 7.92439 88.272 7.48884 88.272 6.61687C88.272 5.74578 87.75 5.30979 86.7066 5.30979H84.8142V7.92439ZM90.9118 9.92001C91.342 10.4588 91.5569 11.084 91.5569 11.7951C91.5569 12.8386 91.21 13.6525 90.5161 14.2373C89.8223 14.8222 88.828 15.1146 87.532 15.1146H81.873V2.95306H87.3942C88.6326 2.95306 89.5906 3.22245 90.2671 3.76168C90.9437 4.3009 91.2818 5.06876 91.2818 6.06657C91.2818 6.80074 91.0868 7.4113 90.6974 7.89869C90.307 8.38607 89.7966 8.70465 89.1661 8.85308C89.8998 9.02543 90.482 9.38078 90.9118 9.92001Z" fill="white"/>
<path fill-rule="evenodd" clip-rule="evenodd" d="M98.3093 6.43649C97.7418 7.06167 97.4573 7.91326 97.4573 8.99083C97.4573 10.0573 97.7418 10.9062 98.3093 11.5367C98.8769 12.1677 99.6426 12.4827 100.606 12.4827C101.557 12.4827 102.32 12.1677 102.893 11.5367C103.467 10.9062 103.753 10.0573 103.753 8.99083C103.753 7.92434 103.469 7.07585 102.902 6.44535C102.334 5.81441 101.569 5.49894 100.606 5.49894C99.6426 5.49894 98.8769 5.81131 98.3093 6.43649ZM103.728 3.56402C104.662 4.09704 105.399 4.83698 105.938 5.78251C106.477 6.72892 106.746 7.79806 106.746 8.99083C106.746 10.1836 106.474 11.2558 105.929 12.2076C105.385 13.1597 104.645 13.9019 103.71 14.4354C102.775 14.9684 101.741 15.2347 100.606 15.2347C99.4702 15.2347 98.4352 14.9684 97.5003 14.4354C96.5654 13.9019 95.8263 13.1597 95.2813 12.2076C94.7368 11.2558 94.4639 10.1836 94.4639 8.99083C94.4639 7.79806 94.7368 6.72892 95.2813 5.78251C95.8263 4.83698 96.5654 4.09704 97.5003 3.56402C98.4352 3.03056 99.4702 2.76382 100.606 2.76382C101.752 2.76382 102.792 3.03056 103.728 3.56402Z" fill="white"/>
<path fill-rule="evenodd" clip-rule="evenodd" d="M113.601 6.43649C113.033 7.06167 112.749 7.91326 112.749 8.99083C112.749 10.0573 113.033 10.9062 113.601 11.5367C114.168 12.1677 114.934 12.4827 115.897 12.4827C116.849 12.4827 117.611 12.1677 118.185 11.5367C118.758 10.9062 119.045 10.0573 119.045 8.99083C119.045 7.92434 118.761 7.07585 118.193 6.44535C117.626 5.81441 116.86 5.49894 115.897 5.49894C114.934 5.49894 114.168 5.81131 113.601 6.43649ZM119.019 3.56402C119.954 4.09704 120.69 4.83698 121.229 5.78251C121.769 6.72892 122.038 7.79806 122.038 8.99083C122.038 10.1836 121.765 11.2558 121.221 12.2076C120.676 13.1597 119.936 13.9019 119.002 14.4354C118.067 14.9684 117.033 15.2347 115.897 15.2347C114.762 15.2347 113.727 14.9684 112.792 14.4354C111.857 13.9019 111.118 13.1597 110.573 12.2076C110.028 11.2558 109.756 10.1836 109.756 8.99083C109.756 7.79806 110.028 6.72892 110.573 5.78251C111.118 4.83698 111.857 4.09704 112.792 3.56402C113.727 3.03056 114.762 2.76382 115.897 2.76382C117.044 2.76382 118.084 3.03056 119.019 3.56402Z" fill="white"/>
<path fill-rule="evenodd" clip-rule="evenodd" d="M131.137 8.90501L136.04 15.1147H132.479L128.351 9.66178V15.1147H125.409V2.95316H128.351V8.30287L132.513 2.95316H136.04L131.137 8.90501Z" fill="white"/>
<path fill-rule="evenodd" clip-rule="evenodd" d="M0.291992 4.51313C0.291992 6.90974 2.24153 8.85883 4.63813 8.85883C7.03429 8.85883 8.98339 6.90974 8.98339 4.51313C8.98339 2.11742 7.03429 0.166992 4.63813 0.166992C2.24153 0.166992 0.291992 2.11742 0.291992 4.51313ZM2.76613 4.51313C2.76613 3.48165 3.60576 2.64158 4.63813 2.64158C5.67006 2.64158 6.50925 3.48165 6.50925 4.51313C6.50925 5.54595 5.67006 6.38513 4.63813 6.38513C3.60576 6.38513 2.76613 5.54595 2.76613 4.51313Z" fill="white"/>
<mask id="mask0" mask-type="alpha" maskUnits="userSpaceOnUse" x="0" y="0" width="9" height="9">
<path fill-rule="evenodd" clip-rule="evenodd" d="M0.291992 4.51316C0.291992 6.90932 2.24153 8.85931 4.63813 8.85931C7.03429 8.85931 8.98383 6.90932 8.98383 4.51316C8.98383 2.11745 7.03429 0.167023 4.63813 0.167023C2.24153 0.167023 0.291992 2.11745 0.291992 4.51316ZM2.76613 4.51316C2.76613 3.48168 3.60576 2.64161 4.63813 2.64161C5.67006 2.64161 6.50925 3.48168 6.50925 4.51316C6.50925 5.54553 5.67006 6.38516 4.63813 6.38516C3.60576 6.38516 2.76613 5.54553 2.76613 4.51316Z" fill="white"/>
</mask>
<g mask="url(#mask0)">
<path fill-rule="evenodd" clip-rule="evenodd" d="M0.291992 8.85886H8.98339V0.167023H0.291992V8.85886Z" fill="white"/>
</g>
<mask id="mask1" mask-type="alpha" maskUnits="userSpaceOnUse" x="12" y="0" width="9" height="9">
<path fill-rule="evenodd" clip-rule="evenodd" d="M12.6952 0.751902C12.2123 1.2353 12.2123 2.01866 12.6952 2.50206L14.7072 4.51318L12.6952 6.52519C12.2123 7.00859 12.2123 7.79151 12.6952 8.27402C12.9371 8.51638 13.2535 8.6369 13.5707 8.6369C13.8867 8.6369 14.2035 8.51638 14.4449 8.27402L16.4565 6.26289L18.4694 8.27402C18.7104 8.51638 19.0263 8.6369 19.3436 8.6369C19.6604 8.6369 19.9763 8.51638 20.2182 8.27402C20.7016 7.79151 20.7016 7.00859 20.2182 6.52519L18.2071 4.51318L20.2182 2.50206C20.7016 2.01866 20.7016 1.2353 20.2182 0.751902C19.7357 0.269391 18.9519 0.268505 18.4694 0.751902L16.4565 2.76436L14.4449 0.751902C14.2035 0.510425 13.8867 0.389465 13.5703 0.389465C13.2535 0.389465 12.9371 0.510425 12.6952 0.751902Z" fill="white"/>
</mask>
<g mask="url(#mask1)">
<path fill-rule="evenodd" clip-rule="evenodd" d="M12.2119 8.63689H20.7013V0.268494H12.2119V8.63689Z" fill="white"/>
</g>
<mask id="mask2" mask-type="alpha" maskUnits="userSpaceOnUse" x="0" y="11" width="21" height="9">
<path fill-rule="evenodd" clip-rule="evenodd" d="M19.4945 11.6511L15.7363 11.9462C15.1333 11.9936 14.6539 12.4695 14.6007 13.0716C14.548 13.6742 14.9384 14.2263 15.5237 14.3778C15.7363 14.4328 15.9402 14.5076 16.1351 14.598C14.5002 15.9029 12.4531 16.6393 10.306 16.6393C7.19559 16.6393 4.29875 15.0983 2.55392 12.5169C2.17198 11.9511 1.40325 11.8022 0.836994 12.185C0.270742 12.5674 0.121425 13.3357 0.504243 13.9024C2.70855 17.1652 6.37324 19.1139 10.306 19.1139C13.1151 19.1139 15.7842 18.1152 17.8853 16.3579C17.9726 16.548 18.0448 16.7456 18.0988 16.9525C18.2406 17.5024 18.7364 17.8795 19.2956 17.8795C19.3315 17.8795 19.3678 17.8781 19.4037 17.8755C20.0063 17.8223 20.4821 17.342 20.5291 16.739L20.8242 12.9808C20.8526 12.621 20.7218 12.2661 20.4662 12.01C20.2327 11.7774 19.9181 11.6476 19.592 11.6476C19.5597 11.6476 19.5273 11.6494 19.4945 11.6511Z" fill="white"/>
</mask>
<g mask="url(#mask2)">
<path fill-rule="evenodd" clip-rule="evenodd" d="M0.121094 19.1139H20.8522V11.6476H0.121094V19.1139Z" fill="white"/>
</g>
<path fill-rule="evenodd" clip-rule="evenodd" d="M12.6952 0.75175C12.2123 1.23559 12.2123 2.01851 12.6952 2.5019L14.7072 4.51303L12.6952 6.52504C12.2123 7.00844 12.2123 7.7918 12.6952 8.27431C12.9371 8.51579 13.2535 8.63675 13.5707 8.63675C13.8867 8.63675 14.2035 8.51579 14.4449 8.27431L16.4569 6.26274L18.4694 8.27431C18.7104 8.51579 19.0268 8.63675 19.3431 8.63675C19.6604 8.63675 19.9763 8.51579 20.2182 8.27431C20.7016 7.7918 20.7016 7.00844 20.2182 6.52504L18.2067 4.51303L20.2182 2.5019C20.7016 2.01851 20.7016 1.23559 20.2182 0.75175C19.7357 0.269239 18.9519 0.268353 18.4694 0.75175L16.4569 2.7642L14.4449 0.75175C14.2035 0.510273 13.8867 0.389313 13.5703 0.389313C13.2535 0.389313 12.9371 0.510273 12.6952 0.75175Z" fill="white"/>
<path fill-rule="evenodd" clip-rule="evenodd" d="M19.4937 11.6513L15.7355 11.9464C15.1325 11.9933 14.653 12.4696 14.5999 13.0718C14.5471 13.6739 14.9375 14.2264 15.5228 14.3775C15.7355 14.4325 15.9393 14.5074 16.1343 14.5982C14.4997 15.903 12.4527 16.6394 10.3051 16.6394C7.19473 16.6394 4.29745 15.098 2.55306 12.5171C2.17068 11.9512 1.40239 11.8024 0.836134 12.1847C0.269439 12.5671 0.120565 13.3359 0.503384 13.9021C2.70769 17.1649 6.37238 19.114 10.3051 19.114C13.1147 19.114 15.7833 18.1153 17.8844 16.3581C17.9717 16.5482 18.0444 16.7453 18.098 16.9527C18.2398 17.5026 18.7356 17.8796 19.2947 17.8796C19.3306 17.8796 19.3669 17.8783 19.4028 17.8756C20.0054 17.8225 20.4813 17.3422 20.5282 16.7391L20.8233 12.981C20.8517 12.6207 20.721 12.2663 20.4653 12.0102C20.2318 11.7771 19.9177 11.6477 19.5911 11.6477C19.5588 11.6477 19.5264 11.6491 19.4937 11.6513Z" fill="white"/>
</svg>
