<svg width="719" height="720" viewBox="0 0 719 720" fill="none" xmlns="http://www.w3.org/2000/svg">
<rect x="358" width="361" height="720" fill="#6367EF"/>
<mask id="mask0" mask-type="alpha" maskUnits="userSpaceOnUse" x="358" y="0" width="361" height="720">
<rect x="358" width="361" height="720" fill="white"/>
</mask>
<g mask="url(#mask0)">
<path fill-rule="evenodd" clip-rule="evenodd" d="M30.6201 302.641C-11.54 344.88 -11.54 413.228 30.6201 455.429L206.261 631L30.6201 806.648C-11.54 848.849 -11.54 917.236 30.6201 959.359C51.7388 980.44 79.3556 991 107.05 991C134.628 991 162.283 980.44 183.363 959.359L359.005 783.75L534.685 959.359C555.726 980.44 583.343 991 610.96 991C638.654 991 666.232 980.44 687.351 959.359C729.55 917.236 729.55 848.849 687.351 806.648L511.748 631L687.351 455.429C729.55 413.228 729.55 344.88 687.351 302.641C645.229 260.518 576.806 260.44 534.685 302.641L359.005 478.328L183.363 302.641C162.283 281.56 134.628 271 107.011 271C79.3556 271 51.7388 281.56 30.6201 302.641Z" fill="#5053CA"/>
</g>
<rect width="358" height="720" fill="#EBECFB"/>
<rect width="358" height="720" fill="url(#paint0_linear)"/>
<mask id="mask1" mask-type="alpha" maskUnits="userSpaceOnUse" x="0" y="0" width="358" height="720">
<rect width="358" height="720" fill="white"/>
<rect width="358" height="720" stroke="white"/>
</mask>
<g mask="url(#mask1)">
<path fill-rule="evenodd" clip-rule="evenodd" d="M-241 720C-241 852.319 -133.338 960 -0.987762 960C131.338 960 239 852.319 239 720C239 587.705 131.338 480 -0.987762 480C-133.338 480 -241 587.705 -241 720ZM-104.367 720C-104.367 663.04 -57.9995 616.65 -0.987762 616.65C55.9995 616.65 102.343 663.04 102.343 720C102.343 777.009 55.9995 823.374 -0.987762 823.374C-57.9995 823.374 -104.367 777.009 -104.367 720Z" fill="#6367EF"/>
</g>
<path fill-rule="evenodd" clip-rule="evenodd" d="M296.819 -63.8339C288.774 -55.7737 288.774 -42.7312 296.819 -34.6784L330.335 -1.17538L296.819 32.3424C288.774 40.3952 288.774 53.4451 296.819 61.4832C300.849 65.5059 306.119 67.5209 311.404 67.5209C316.666 67.5209 321.943 65.5059 325.966 61.4832L359.482 27.9728L393.006 61.4832C397.021 65.5059 402.291 67.5209 407.561 67.5209C412.846 67.5209 418.108 65.5059 422.138 61.4832C430.191 53.4451 430.191 40.3952 422.138 32.3424L388.629 -1.17538L422.138 -34.6784C430.191 -42.7312 430.191 -55.7737 422.138 -63.8339C414.101 -71.872 401.044 -71.8868 393.006 -63.8339L359.482 -30.3088L325.966 -63.8339C321.943 -67.8567 316.666 -69.8717 311.396 -69.8717C306.119 -69.8717 300.849 -67.8567 296.819 -63.8339Z" fill="#6367EF"/>
<mask id="mask2" mask-type="alpha" maskUnits="userSpaceOnUse" x="153" y="-70" width="138" height="138">
<path fill-rule="evenodd" clip-rule="evenodd" d="M153 -0.979111C153 37.0035 183.905 67.9135 221.896 67.9135C259.881 67.9135 290.785 37.0035 290.785 -0.979111C290.785 -38.9547 259.881 -69.8717 221.896 -69.8717C183.905 -69.8717 153 -38.9547 153 -0.979111ZM192.221 -0.979111C192.221 -17.3296 205.531 -30.646 221.896 -30.646C238.254 -30.646 251.557 -17.3296 251.557 -0.979111C251.557 15.3854 238.254 28.6948 221.896 28.6948C205.531 28.6948 192.221 15.3854 192.221 -0.979111Z" fill="white"/>
</mask>
<g mask="url(#mask2)">
<path fill-rule="evenodd" clip-rule="evenodd" d="M153 67.9135H290.785V-69.8717H153V67.9135Z" fill="#6367EF"/>
</g>
<mask id="mask3" mask-type="alpha" maskUnits="userSpaceOnUse" x="290" y="67" width="139" height="139">
<path fill-rule="evenodd" clip-rule="evenodd" d="M290.785 136.414C290.785 174.396 321.69 205.306 359.681 205.306C397.666 205.306 428.57 174.396 428.57 136.414C428.57 98.438 397.666 67.5209 359.681 67.5209C321.69 67.5209 290.785 98.438 290.785 136.414ZM330.006 136.414C330.006 120.063 343.316 106.747 359.681 106.747C376.04 106.747 389.343 120.063 389.343 136.414C389.343 152.778 376.04 166.087 359.681 166.087C343.316 166.087 330.006 152.778 330.006 136.414Z" fill="white"/>
</mask>
<g mask="url(#mask3)">
<path fill-rule="evenodd" clip-rule="evenodd" d="M290.785 205.306H428.57V67.5209H290.785V205.306Z" fill="#6367EF"/>
</g>
<path fill-rule="evenodd" clip-rule="evenodd" d="M159.034 349.515C150.989 357.576 150.989 370.618 159.034 378.671L192.55 412.174L159.034 445.692C150.989 453.744 150.989 466.794 159.034 474.832C163.064 478.855 168.334 480.87 173.618 480.87C178.881 480.87 184.158 478.855 188.181 474.832L221.697 441.322L255.221 474.832C259.236 478.855 264.506 480.87 269.776 480.87C275.061 480.87 280.323 478.855 284.353 474.832C292.406 466.794 292.406 453.744 284.353 445.692L250.844 412.174L284.353 378.671C292.406 370.618 292.406 357.576 284.353 349.515C276.316 341.477 263.259 341.462 255.221 349.515L221.697 383.04L188.181 349.515C184.158 345.493 178.881 343.478 173.611 343.478C168.334 343.478 163.064 345.493 159.034 349.515Z" fill="#6367EF"/>
<mask id="mask4" mask-type="alpha" maskUnits="userSpaceOnUse" x="153" y="205" width="138" height="139">
<path fill-rule="evenodd" clip-rule="evenodd" d="M153 274.585C153 312.568 183.905 343.478 221.896 343.478C259.881 343.478 290.785 312.568 290.785 274.585C290.785 236.609 259.881 205.692 221.896 205.692C183.905 205.692 153 236.609 153 274.585ZM192.221 274.585C192.221 258.234 205.531 244.918 221.896 244.918C238.254 244.918 251.557 258.234 251.557 274.585C251.557 290.95 238.254 304.259 221.896 304.259C205.531 304.259 192.221 290.95 192.221 274.585Z" fill="white"/>
</mask>
<g mask="url(#mask4)">
<path fill-rule="evenodd" clip-rule="evenodd" d="M153 343.478H290.785V205.692H153V343.478Z" fill="#6367EF"/>
</g>
<mask id="mask5" mask-type="alpha" maskUnits="userSpaceOnUse" x="290" y="343" width="139" height="138">
<path fill-rule="evenodd" clip-rule="evenodd" d="M290.785 411.978C290.785 449.96 321.69 480.87 359.681 480.87C397.666 480.87 428.57 449.96 428.57 411.978C428.57 374.002 397.666 343.085 359.681 343.085C321.69 343.085 290.785 374.002 290.785 411.978ZM330.006 411.978C330.006 395.627 343.316 382.311 359.681 382.311C376.04 382.311 389.343 395.627 389.343 411.978C389.343 428.342 376.04 441.652 359.681 441.652C343.316 441.652 330.006 428.342 330.006 411.978Z" fill="white"/>
</mask>
<g mask="url(#mask5)">
<path fill-rule="evenodd" clip-rule="evenodd" d="M290.785 480.87H428.57V343.085H290.785V480.87Z" fill="#6367EF"/>
</g>
<defs>
<linearGradient id="paint0_linear" x1="529.083" y1="-439.449" x2="0" y2="-439.449" gradientUnits="userSpaceOnUse">
<stop stop-color="white"/>
<stop offset="1" stop-color="white" stop-opacity="0.01"/>
</linearGradient>
</defs>
</svg>
